<svg xmlns="http://www.w3.org/2000/svg" viewBox="0 0 1080 1080">
  <defs>
    <linearGradient id="g" x1="138" y1="565" x2="940" y2="565" gradientUnits="userSpaceOnUse">
      <stop offset="0%" stop-color="#CCFF00"/>
      <stop offset="55%" stop-color="#CCFF00"/>
      <stop offset="100%" stop-color="#7700CC"/>
    </linearGradient>
  </defs>
  <rect width="1080" height="1080" rx="180" fill="#0A0A0A"/>
  <g fill="url(#g)">
    <path d="M443.75,353.67c.54-.07,1.18-.24,1.7-.22,6.46.19,12.54.27,18.25.26,72.87-.17,143.16-.16,210.87.04.09,0,.17.08.17.17,0,.02,0,.04,0,.05-5.19,13.17-8.59,21.9-10.19,26.19-3.13,8.34-9.06,20-12.28,29.86-1.17,3.58-2.19,6.27-3.06,8.08-1.73,3.61-2.51,6.96-4.34,10.66-1.66,3.37-3.8,8.34-6.42,14.91-3.33,8.37-6.63,14.66-9.7,22.88-6.34,16.99-12.68,32.34-19,46.06-2.38,5.17-3.97,10.21-6.71,16.53-5.24,12.01-9.74,23.27-13.52,33.79-2.28,6.39-4.62,12.02-7.01,16.88-4.37,8.92-7.74,18.38-11.26,26.13-1.25,2.75-4.71,11.26-10.38,25.52-3.82,9.6-8.37,20.48-13.65,32.62-5.9,13.56-13.57,32.22-23.01,55.98-2.92,7.34-6.73,14.72-8.96,20.55-4.88,12.83-10.32,26.14-16.32,39.93-.33.75-1.06,1.24-1.88,1.24h-47.62c-.33,0-.6-.26-.6-.59,0-.11.03-.21.08-.31l2.53-4.45c.14-.25.25-.53.33-.81,1.32-4.8,2.46-8.32,3.43-10.55,3.08-7.15,4.84-12.47,7.99-19.42,2.25-4.97,3.69-8.39,4.31-10.27,1.49-4.53,3.63-8.39,5.84-13.72,6.33-15.21,9.92-23.95,10.76-26.23.61-1.61,1.06-3,1.35-4.17.07-.3-.11-.61-.41-.68-.05-.01-.09-.02-.14-.02h-255.66c-.34,0-.62-.28-.62-.63h0c.03-9.24-.03-17.24-.19-24.01-.22-9.78.49-17.32,2.16-22.62,5.21-16.66,20.34-26.43,37.74-27.42,2.34-.13,7.48-.21,15.44-.21,44.75-.07,89.37-.04,133.86.07,16.93.04,31.54-1.44,43.83-4.46,4.46-1.09,10.05-2.94,16.74-5.55,22.32-8.67,40.85-22.23,55.6-40.67,4.76-5.96,8.82-12.25,12.18-18.88,5.4-10.7,10.39-22.39,12.48-34.52,2.97-17.25,3-34.34.09-51.26-1.69-9.82-4.1-18.27-7.23-25.34-3.2-7.25-4.96-11.96-8.32-17.35-8.46-13.61-19.92-27.54-33.04-36.89-12.87-9.18-27.24-16.23-42.51-21.97-3.27-1.24-7.11-2.12-11.52-2.64-2.31-.28-6.38-.99-12.23-2.12-.12,0-.21-.1-.21-.22s.1-.21.22-.21h0Z"/>
    <path d="M837.65,781.66h-244.01c-.28,0-.51-.22-.51-.5,0-.11.03-.21.09-.3,1.57-2.28,2.86-5.02,3.88-8.21.42-1.32,1.42-3.87,3.01-7.66,9.98-23.9,16.18-38.93,18.6-45.09,5.44-13.86,9.41-23.52,11.9-28.99,4.73-10.36,7.48-18.86,12.19-29.46,5.65-12.74,11.1-27.7,15.65-38.89,2.85-7.02,5.64-12.96,7.9-18.68,3.41-8.66,6.58-16.41,9.53-23.25,5.88-13.65,10.62-27.78,16.66-41.35,3.3-7.38,5.81-11.83,7.78-18.25,2.07-6.76,6.54-15.53,9.36-22.7,6.41-16.26,12.97-31.87,19.66-46.83,1.37-3.07,2.16-7.07,3.28-9.57,2.62-5.83,7.3-17.27,14.02-34.32,2.34-5.91,6.18-15.17,11.53-27.78,3.64-8.57,6.34-17.18,10.28-25.6.15-.32.47-.52.82-.52h51.01l-.92.49c-.26.18-.6.47-.9.9,0,0-.14.21-.26.45-.42.88-5.86,14.54-6.67,16.59-1.27,3.72-3.27,9.42-5.97,16.3-.93,2.37-6.01,12.25-11.33,26.63-2.42,6.55-5.53,14.11-9.34,22.68-1.02,2.29-1.76,4.84-2.21,7.64-.06.36.2.7.57.76.03,0,.06,0,.1,0h53.94c.47,0,.84.38.84.85-.16,111.55-.32,223.1-.48,334.65Z"/>
    <path d="M847.67,772.29c-.15,0-.27-.12-.27-.27v-334.46c0-.38-.31-.7-.69-.7h-49.54c-.43,0-.79-.35-.79-.78,0-.11.02-.23.07-.33,3.52-7.99,6.3-14.65,8.33-19.98,6.31-16.64,15.14-37.06,20.42-50.34,1.05-2.63,2.37-2.1,5.25-2.1,52.26-.01,81.59,0,87.99.03.29,0,.53.24.53.53v407.45c0,.52-.43.94-.96.94h-70.34Z"/>
    <path d="M138.58,643.41c.64-6.38.96-18.04.94-34.98-.05-49.19,0-103.47.17-162.82,0-.23.19-.42.42-.42,102.42-.18,197.83-.18,286.23.01,8.77.02,16.89,2.03,24.35,6.06.52.28,2.63,1.85,6.31,4.73,2.52,1.96,4.39,3.77,5.6,5.43,2.76,3.79,4.55,7.43,5.35,10.91,3.15,13.66,1.75,30.74-10.09,40.11-6.19,4.9-12.88,8.2-20.08,9.91-4.26,1-11.75,1.5-22.45,1.48-41.31-.07-88.96-.07-142.93.01-8.4.02-15.02.45-19.87,1.3-7.21,1.27-13.35,2.42-18.39,3.45-7.16,1.46-14.18,4.99-21.87,8.34-21.42,9.33-39.51,26.1-51.94,45.69-1.9,3-4.84,8.72-8.81,17.18-3.43,7.32-5.76,13.3-6.99,17.94-2.13,8.12-3.82,16.3-5.06,24.55-.07.45-.27.86-.57,1.24-.07.08-.19.08-.27.02-.04-.04-.07-.1-.06-.15Z"/>
  </g>
</svg>
